<?xml version="1.0" standalone="no"?>
<!DOCTYPE svg PUBLIC "-//W3C//DTD SVG 20010904//EN"
 "http://www.w3.org/TR/2001/REC-SVG-20010904/DTD/svg10.dtd">
<svg version="1.0" xmlns="http://www.w3.org/2000/svg"
 width="64.000000pt" height="64.000000pt" viewBox="0 0 64.000000 64.000000"
 preserveAspectRatio="xMidYMid meet">

<g transform="translate(0.000000,64.000000) scale(0.100000,-0.100000)"
fill="#000000" stroke="none">
<path d="M251 620 c-89 -19 -173 -89 -215 -179 -29 -64 -29 -178 0 -242 51
-110 156 -179 275 -179 85 0 147 22 204 72 129 114 140 305 25 431 -75 82
-182 118 -289 97z m101 -230 c26 -15 29 -20 15 -25 -9 -4 -22 -4 -29 0 -7 4
-4 -1 6 -9 11 -9 23 -16 28 -16 4 0 8 -20 8 -45 0 -40 -4 -47 -32 -65 -33 -20
-43 -18 -83 15 -19 16 -19 16 13 11 19 -3 42 -1 53 4 23 13 25 55 4 64 -8 3
-15 17 -15 32 0 26 0 27 -20 9 -11 -10 -20 -26 -20 -36 0 -10 9 -23 20 -29 11
-6 20 -17 20 -25 0 -19 -4 -19 -40 0 -26 13 -30 21 -30 55 0 35 5 43 33 60 39
24 30 24 69 0z"/>
</g>
</svg>
